<svg xmlns="http://www.w3.org/2000/svg" xmlns:xlink="http://www.w3.org/1999/xlink" version="1.1" x="0px" y="0px" viewBox="0 0 100 125" style="enable-background:new 0 0 100 100;" xml:space="preserve"><path d="M66.2,20.8c-3,0-5.4,2.4-5.4,5.4c0,2.4,1.6,4.5,3.8,5.1l0,15.3l-13,9.1l0-36.6c2.2-0.7,3.8-2.7,3.8-5.1c0-3-2.4-5.4-5.4-5.4  s-5.4,2.4-5.4,5.4c0,2.4,1.6,4.5,3.8,5.1l0,35.3c0,0,0,0,0,0l0,6.6l-13-9.1V38.4v-1.6c2.2-0.7,3.8-2.7,3.8-5.1c0-3-2.4-5.4-5.4-5.4  s-5.4,2.4-5.4,5.4c0,2.4,1.6,4.5,3.8,5.1l0,1.6l0,15.1l3.1,2.2l13,9.1v16c-2.2,0.7-3.8,2.7-3.8,5.1c0.1,3,2.5,5.4,5.5,5.4  s5.4-2.4,5.4-5.4c0-2.4-1.6-4.5-3.8-5.1V65.4v-5.9l16.2-11.3l0-16.9c2.2-0.7,3.8-2.7,3.8-5.1C71.6,23.2,69.2,20.8,66.2,20.8z   M31.6,31.6c0-1.2,1-2.2,2.2-2.2s2.2,1,2.2,2.2c0,1.2-1,2.2-2.2,2.2S31.6,32.9,31.6,31.6z M50,11.8c1.2,0,2.2,1,2.2,2.2  c0,1.2-1,2.2-2.2,2.2s-2.2-0.9-2.2-2.2C47.8,12.8,48.8,11.8,50,11.8z M52.2,85.9c0,1.2-1,2.2-2.2,2.2c-1.2,0-2.2-1-2.2-2.2  s1-2.2,2.2-2.2C51.2,83.7,52.2,84.7,52.2,85.9z M66.2,28.3C65,28.4,64,27.4,64,26.1c0-1.2,1-2.2,2.2-2.2c1.2,0,2.2,1,2.2,2.2  C68.4,27.3,67.4,28.3,66.2,28.3z"/><text x="0" y="115" fill="#000000" font-size="5px" font-weight="bold" font-family="'Helvetica Neue', Helvetica, Arial-Unicode, Arial, Sans-serif">Created by Wenjie</text><text x="0" y="120" fill="#000000" font-size="5px" font-weight="bold" font-family="'Helvetica Neue', Helvetica, Arial-Unicode, Arial, Sans-serif">from the Noun Project</text></svg>